<?xml version="1.0" encoding="utf-8"?>
<!-- Generator: Adobe Illustrator 22.0.0, SVG Export Plug-In . SVG Version: 6.00 Build 0)  -->
<svg version="1.1" id="Layer_1" xmlns="http://www.w3.org/2000/svg" xmlns:xlink="http://www.w3.org/1999/xlink" x="0px" y="0px"
	 viewBox="0 0 85 25" style="enable-background:new 0 0 85 25;" xml:space="preserve">
<style type="text/css">
	.st0{display:none;}
	.st1{display:inline;fill:none;stroke:#FF4600;stroke-width:2;stroke-linecap:round;stroke-linejoin:round;}
	.st2{font-family:'BebasNeue';}
	.st3{font-size:14.8691px;}
</style>
<g id="Layer_1_1_">
	<g transform="translate(1)">
		<g transform="translate(0 1)" class="st0">
			<path class="st1" d="M18,14V6c0-0.7-0.4-1.4-1-1.7l-7-4c-0.6-0.4-1.4-0.4-2,0l-7,4C0.4,4.6,0,5.3,0,6v8c0,0.7,0.4,1.4,1,1.7l7,4
				c0.6,0.4,1.4,0.4,2,0l7-4C17.6,15.4,18,14.7,18,14z"/>
			<polyline class="st1" points="4.5,2.2 9,4.8 13.5,2.2 			"/>
			<polyline class="st1" points="4.5,17.8 4.5,12.6 0,10 			"/>
			<polyline class="st1" points="18,10 13.5,12.6 13.5,17.8 			"/>
			<polyline class="st1" points="0.3,5 9,10 17.7,5 			"/>
			<line class="st1" x1="9" y1="20.1" x2="9" y2="10"/>
		</g>
		<path class="st0" d="M29.5,14.9h5.9v2.7H26V0h3.5V14.9z M44,3.6c1.4,0,2.6,0.3,3.6,0.8c1.1,0.6,1.9,1.4,2.5,2.5S51,9.3,51,10.7
			s-0.3,2.7-0.9,3.8s-1.5,1.9-2.5,2.5c-1.1,0.6-2.3,0.9-3.6,0.9s-2.6-0.3-3.6-0.9s-1.9-1.4-2.5-2.5S37,12.2,37,10.7s0.3-2.7,0.9-3.8
			c0.6-1.1,1.5-1.9,2.5-2.5S42.6,3.6,44,3.6z M44,6.7c-1,0-1.8,0.3-2.5,1s-1,1.7-1,3s0.3,2.3,1,3s1.5,1,2.5,1s1.8-0.3,2.5-1
			s1-1.7,1-3s-0.3-2.3-1-3S44.9,6.7,44,6.7z M59,3.6c1.2,0,2.2,0.3,3,0.8c0.8,0.6,1.4,1.3,1.8,2.2V3.8h3.5v13.9
			c0,1.3-0.3,2.4-0.8,3.5c-0.5,1-1.3,1.8-2.3,2.4s-2.2,0.9-3.7,0.9c-2,0-3.6-0.5-4.8-1.4c-1.2-1-2-2.2-2.3-3.9h3.5
			c0.2,0.7,0.6,1.2,1.2,1.6c0.6,0.4,1.3,0.6,2.2,0.6c1,0,1.9-0.3,2.5-0.9s1-1.5,1-2.8v-3c-0.4,0.9-0.9,1.7-1.8,2.2
			c-0.8,0.6-1.8,0.8-3,0.8s-2.2-0.3-3.1-0.9s-1.7-1.4-2.2-2.5s-0.8-2.3-0.8-3.8s0.3-2.7,0.8-3.8s1.3-1.9,2.2-2.5S57.8,3.6,59,3.6z
			 M60.1,6.7c-1.1,0-2,0.4-2.7,1.1s-1,1.7-1,3s0.3,2.2,1,2.9s1.5,1.1,2.7,1.1c1.1,0,1.9-0.4,2.6-1.1c0.7-0.7,1-1.7,1-2.9
			s-0.3-2.2-1-2.9C62,7.1,61.1,6.7,60.1,6.7z M76.8,3.6c1.4,0,2.6,0.3,3.6,0.8c1.2,0.6,2,1.5,2.6,2.5s0.9,2.3,0.9,3.8
			s-0.3,2.7-0.9,3.8s-1.5,1.9-2.5,2.5c-1.1,0.6-2.3,0.9-3.6,0.9s-2.6-0.3-3.6-0.9s-1.9-1.4-2.5-2.5s-0.9-2.3-0.9-3.8
			s0.3-2.7,0.9-3.8s1.5-1.9,2.5-2.5S75.5,3.6,76.8,3.6z M76.8,6.7c-1,0-1.8,0.3-2.5,1s-1,1.7-1,3s0.3,2.3,1,3s1.5,1,2.5,1
			s1.8-0.3,2.5-1s1-1.7,1-3s-0.3-2.3-1-3C78.7,7,77.8,6.7,76.8,6.7z"/>
	</g>
	<g id="Layer_2_1_">
		
			<image style="overflow:visible;enable-background:new    ;" width="500" height="500" xlink:href="logoDominus.png"  transform="matrix(5.025460e-02 0 0 4.745120e-02 1.0608 0.6372)">
		</image>
		<text transform="matrix(0.973 0 0 1 32.5331 18.996)" class="st2 st3">Dominus</text>
	</g>
</g>
</svg>
